<?xml version="1.0" standalone="no"?>
<!DOCTYPE svg PUBLIC "-//W3C//DTD SVG 1.1//EN" "http://www.w3.org/Graphics/SVG/1.1/DTD/svg11.dtd" >
<!--
2013-9-30: Created.
-->
<svg>
<metadata>
Created by iconfont
</metadata>
<defs>

<font id="iconfont" horiz-adv-x="1024" >
  <font-face
    font-family="iconfont"
    font-weight="500"
    font-stretch="normal"
    units-per-em="1024"
    ascent="896"
    descent="-128"
  />
    <missing-glyph />
    
    <glyph glyph-name="x" unicode="x" horiz-adv-x="1001"
d="M281 543q-27 -1 -53 -1h-83q-18 0 -36.5 -6t-32.5 -18.5t-23 -32t-9 -45.5v-76h912v41q0 16 -0.5 30t-0.5 18q0 13 -5 29t-17 29.5t-31.5 22.5t-49.5 9h-133v-97h-438v97zM955 310v-52q0 -23 0.5 -52t0.5 -58t-10.5 -47.5t-26 -30t-33 -16t-31.5 -4.5q-14 -1 -29.5 -0.5
t-29.5 0.5h-32l-45 128h-439l-44 -128h-29h-34q-20 0 -45 1q-25 0 -41 9.5t-25.5 23t-13.5 29.5t-4 30v167h911zM163 247q-12 0 -21 -8.5t-9 -21.5t9 -21.5t21 -8.5q13 0 22 8.5t9 21.5t-9 21.5t-22 8.5zM316 123q-8 -26 -14 -48q-5 -19 -10.5 -37t-7.5 -25t-3 -15t1 -14.5
t9.5 -10.5t21.5 -4h37h67h81h80h64h36q23 0 34 12t2 38q-5 13 -9.5 30.5t-9.5 34.5q-5 19 -11 39h-368zM336 498v228q0 11 2.5 23t10 21.5t20.5 15.5t34 6h188q31 0 51.5 -14.5t20.5 -52.5v-227h-327z" />
    

    
    <glyph glyph-name="close" unicode="&#58935;" d="M512-25.6 512-25.6C738.215834-25.6 921.6 157.784166 921.6 384 921.6 610.215834 738.215834 793.6 512 793.6 285.784166 793.6 102.4 610.215834 102.4 384 102.4 157.784166 285.784166-25.6 512-25.6L512-25.6 512-25.6 512-25.6ZM512-128 512-128C229.230208-128 0 101.230208 0 384 0 666.769792 229.230208 896 512 896 794.769792 896 1024 666.769792 1024 384 1024 101.230208 794.769792-128 512-128L512-128 512-128 512-128ZM512 456.407734 367.181118 601.226616C347.218573 621.189161 314.77164 621.218047 294.776797 601.223203 274.822639 581.269045 274.780425 548.811841 294.773384 528.818882L439.592266 384 294.773384 239.181118C274.810839 219.218573 274.781953 186.77164 294.776797 166.776797 314.730955 146.822639 347.188159 146.780425 367.181118 166.773384L512 311.592266 656.818882 166.773384C676.781427 146.810839 709.22836 146.781953 729.223203 166.776797 749.177361 186.730955 749.219575 219.188159 729.226616 239.181118L584.407734 384 729.226616 528.818882C749.189161 548.781427 749.218047 581.22836 729.223203 601.223203 709.269045 621.177361 676.811841 621.219575 656.818882 601.226616L512 456.407734 512 456.407734Z"  horiz-adv-x="1024" />

    
    <glyph glyph-name="circle-left" unicode="&#58899;" d="M19.407 391.476c0-268.009 217.268-485.268 485.276-485.268 268.001 0 485.26 217.258 485.26 485.268 0 268.008-217.258 485.265-485.26 485.268-268.009 0.001-485.276-217.259-485.276-485.266zM929.291 391.476c0-234.511-190.111-424.607-424.607-424.607-234.501 0-424.608 190.098-424.608 424.607 0 234.501 190.109 424.606 424.608 424.606 234.498 0.001 424.607-190.106 424.608-424.606zM367.124 418.118c-7.281-7.264-13.253-17.223-11.601-26.641-1.653-9.419 4.32-19.38 11.601-26.658l232.226-232.226c11.847-11.83 31.045-11.828 42.892 0 11.847 11.847 11.848 31.054 0 42.902l-215.981 215.982 215.981 215.974c11.847 11.845 11.847 31.052 0 42.9-11.845 11.839-31.043 11.839-42.892 0l-232.226-232.23z"  horiz-adv-x="1024" />

    
    <glyph glyph-name="email" unicode="&#59030;" d="M878.17989 709.493236 145.82011 709.493236c-44.938492 0-81.373309-36.434817-81.373309-81.373309l0-488.239853c0-44.938492 36.434817-81.373309 81.373309-81.373309l732.360803 0c44.938492 0 81.373309 36.434817 81.373309 81.373309l0 488.239853C959.553199 673.058418 923.118382 709.493236 878.17989 709.493236M145.82011 668.806581l732.360803 0c4.78805 0 9.296737-0.974188 13.56904-2.501984L539.575032 314.138886c-7.370875-7.360641-17.165961-11.4334-27.575032-11.4334-10.410094 0-20.205181 4.072759-27.594475 11.4334L132.270513 666.304597C136.52235 667.832394 141.05048 668.806581 145.82011 668.806581M105.133456 139.880073l0 488.239853c0 2.423189 0.317225 4.758374 0.716314 7.073092l251.190973-251.193019-251.190973-251.201206C105.449657 135.111466 105.133456 137.456884 105.133456 139.880073M878.17989 99.193419 145.82011 99.193419c-4.768607 0-9.296737 0.974188-13.548574 2.483564l253.53639 253.555833 69.850881-69.859068c15.57472-15.566534 35.956933-23.353894 56.341193-23.353894 20.401656 0 40.785915 7.78736 56.322773 23.353894l69.869301 69.859068 253.578346-253.555833C887.476627 100.167606 882.968963 99.193419 878.17989 99.193419M918.866544 139.880073c0-2.423189-0.317225-4.768607-0.716314-7.081279l-251.190973 251.201206 251.190973 251.193019c0.399089-2.314719 0.716314-4.650927 0.716314-7.073092L918.866544 139.880073z"  horiz-adv-x="1024" />

    
    <glyph glyph-name="down" unicode="&#59043;" d="M468.459345 241.213993 169.012322 529.523351l45.264926 43.87323 299.453163-288.309358 299.447023 288.309358 45.264926-43.87323L558.994314 241.213993l-45.264926-43.87323L468.459345 241.213993z"  horiz-adv-x="1024" />

    
    <glyph glyph-name="view" unicode="&#58882;" d="M512.019443 535.289682c-83.695191 0-151.542438-67.847248-151.542438-151.542438 0-83.694167 67.847248-151.541415 151.542438-151.541415 83.694167 0 151.541415 67.847248 151.541415 151.541415C663.560858 467.442434 595.71361 535.289682 512.019443 535.289682L512.019443 535.289682zM512.019443 274.36809c-60.408835 0-109.379153 48.970318-109.379153 109.379153s48.969295 109.379153 109.379153 109.379153c60.408835 0 109.379153-48.969295 109.379153-109.379153C621.397572 323.338409 572.428278 274.36809 512.019443 274.36809L512.019443 274.36809zM22.177092 397.094226M512 35.30432c-91.302449 0-174.805258 17.810644-248.190639 52.937676-58.981323 28.233018-111.430882 67.576071-155.89149 116.937293C32.302707 289.129282 6.083555 372.790704 5.003967 376.311901l-2.49789 8.147564 2.526543 8.139378c1.107217 3.566222 27.981285 88.307232 104.199177 173.391049 44.840254 50.057069 97.586572 89.958848 156.774603 118.598118 73.697489 35.661198 157.378353 53.741995 248.721735 53.741995 91.373057 0 174.879959-18.134009 248.200872-53.896514 58.903551-28.731368 111.227244-68.76106 155.519006-118.977765 75.271334-85.339644 101.166097-170.332387 102.231359-173.907818l2.407839-8.079002-2.51324-8.046257c-1.096984-3.511987-27.733645-86.964654-103.755062-170.69873-44.692898-49.228191-97.320513-88.464821-156.420539-116.621091C686.857447 53.067892 603.284029 35.30432 512 35.30432zM60.71378 384.412392c8.196683-21.689998 34.628682-83.308381 89.824795-143.975089 39.606043-43.532469 86.196151-78.184687 138.479935-102.994746 65.549925-31.106462 140.571572-46.879704 222.981491-46.879704 82.996273 0 158.573575 15.957437 224.63106 47.428196 52.579519 25.048489 99.437733 59.998489 139.276067 103.877859 54.862515 60.429301 80.923054 120.651894 89.034802 141.955082-8.025791 21.86089-34.251082 84.815711-89.449241 146.789181-39.454594 44.296879-85.917812 79.55387-138.098241 104.792695-65.394383 31.629371-140.309606 47.667649-222.665289 47.667649-82.937944 0-158.52241-16.22452-224.653573-48.224328-52.674687-25.488511-99.671047-61.059658-139.683343-105.726973C95.211479 467.522252 68.898183 406.096251 60.71378 384.412392z"  horiz-adv-x="1024" />

    
    <glyph glyph-name="qq" unicode="&#58884;" d="M110.08 87.591c22.43-7.581 46.927-2.973 68.962 13.135 0.572-0.886 1.123-1.752 1.694-2.619-37.632-22.961-58.624-55.02-58.624-90.762 0-73.511 86.469-126.858 205.627-126.858 63.193 0 121.758 16.404 159.39 44.288 12.229-0.689 23.138-0.689 35.505-0.02 37.632-27.864 96.177-44.268 159.37-44.268 119.138 0 205.646 53.347 205.646 126.858 0 35.663-20.913 67.624-58.387 90.605a99.888 99.888 0 0 1 1.713 2.638c21.977-15.99 46.316-20.618 68.766-13.016 67.17 22.823 70.833 140.012 40.192 238.69-16.266 52.342-46.16 93.361-71.07 120.655 0.295 3.78 0.453 7.542 0.453 11.343 0 28.947-7.582 57.029-22.528 83.672v0.374c0 190.327-153.265 345.187-341.642 345.187-188.396 0-341.661-154.86-341.661-345.187v-1.22c-14.632-26.388-22.056-54.213-22.056-82.807 0-3.446 0.118-6.931 0.394-10.476-25.226-27.451-55.473-68.785-71.857-121.54-30.661-98.718-26.998-215.868 40.113-238.672z m7.956 223.725c15.242 49.132 45.45 86.96 68.096 110.02a25.196 25.196 0 0 1 6.892 21.564c-0.827 5.317-1.26 10.397-1.26 15.34 0 21.681 6.301 43.047 18.688 63.429a25.488 25.488 0 0 1 3.623 14.828 79.882 79.882 0 0 0-0.236 5.79c0 162.56 130.678 294.813 291.288 294.813s291.289-132.253 291.289-294.813c0-1.753-0.079-3.446-0.197-5.16a25.277 25.277 0 0 1 3.683-14.828c12.642-20.559 19.042-42.102 19.042-64.04 0-5.159-0.453-10.377-1.359-15.93-1.339-7.917 1.221-15.951 6.833-21.721 22.37-22.902 52.264-60.475 67.407-109.292 26.959-86.784 17.507-167.286-8.211-176.03-13.332-4.51-29.125 9.708-38.952 21.445-5.336 6.42-13.41 9.807-21.937 8.881a25.137 25.137 0 0 1-19.594-13.233 324.714 324.714 0 0 0-31.252-47.97 25.242 25.242 0 0 1-4.549-21.918 25.215 25.215 0 0 1 14.69-16.876c35.152-14.651 55.277-35.88 55.277-58.25 0-42.181-69.651-76.485-155.274-76.485-55.512 0-107.185 14.828-134.813 38.715a25.174 25.174 0 0 1-16.463 6.124c-0.61 0-1.26-0.02-1.87-0.078-17.389-1.3-30.957-1.28-47.853 0.02-6.932 0.61-13.351-1.675-18.393-6.046-27.667-23.907-79.34-38.735-134.872-38.735-85.603 0-155.254 34.304-155.254 76.485 0 22.45 20.243 43.737 55.512 58.368 7.286 3.033 12.721 9.236 14.71 16.876a25.113 25.113 0 0 1-4.51 21.918c-11.874 15.183-22.37 31.35-31.231 48.049a25.163 25.163 0 0 1-19.633 13.253c-8.468 0.886-16.581-2.462-21.957-8.881-9.886-11.835-25.522-26.349-39.11-21.622-25.776 8.704-35.19 89.186-8.25 175.99z"  horiz-adv-x="1024" />

    
    <glyph glyph-name="menu" unicode="&#58906;" d="M73.142857 18.285714h1024a73.142857 73.142857 0 0 0 0-146.285714h-1024a73.142857 73.142857 0 0 0 0 146.285714zM73.142857 457.142857h1024a73.142857 73.142857 0 0 0 0-146.285714h-1024a73.142857 73.142857 0 0 0 0 146.285714zM73.142857 896h1024a73.142857 73.142857 0 0 0 0-146.285714h-1024a73.142857 73.142857 0 0 0 0 146.285714z"  horiz-adv-x="1170" />

    
    <glyph glyph-name="wo1" unicode="&#58880;" d="M157.385919 113.08226200000001l0.199659 0.46715c-0.066553-0.154863-0.134385-0.311006-0.199659-0.46715zM728.654354 116.91416600000002a103.051833 103.051833 0 0 1-9.651431 19.31054 310.637578 310.637578 0 0 0 9.442814-19.525557c0.069112 0.071672 0.138225 0.144624 0.208617 0.215017zM911.415919 107.701727c-0.108788-0.108788-0.212457-0.220136-0.321246-0.330204-4.480793 10.194091-9.345544 20.174446-14.496983 29.97818-61.108234 116.280474-168.374649 204.22867-297.714823 239.310935 85.51518 47.0848 143.486476 138.007392 143.486475 242.545143 0 152.901132-123.925083 276.804458-276.805737 276.804458-152.872975 0-276.800618-123.903326-276.800618-276.804458 0-106.897815 60.722996-199.494465 149.509501-245.600171C201.204514 332.96747000000005 90.06524 232.58030699999995 34.615271 102.53620899999999l-0.307167-0.719282c-7.958175-18.927862-12.363455-39.72048-12.363455-61.540827 0-1.177472 0.063993-2.337026 0.08831-3.505539a640.835269 640.835269 0 0 1 9.485048-8.066963C98.477766-26.96010799999999 176.312501-69.97879 261.352853-96.74835900000005c64.45891-20.289634 133.051771-31.254201 204.210752-31.254201 108.995507 0 211.971828 25.708564 303.26302 71.325364a680.853957 680.853957 0 0 1 152.54917 104.277939c0.039676 1.485918 0.075512 2.971837 0.075512 4.464155 0 19.578031-3.560573 38.317753-10.035388 55.636829z"  horiz-adv-x="1199" />

    
    <glyph glyph-name="point" unicode="&#58901;" d="M512 384m-85.333333 0a85.333333 85.333333 0 1 1 170.666666 0 85.333333 85.333333 0 1 1-170.666666 0Z"  horiz-adv-x="1024" />

    
    <glyph glyph-name="rizhi" unicode="&#58881;" d="M121.6 716.8l51.2 51.2v-832l-51.2 51.2h768L838.4-64V768l51.2-51.2h-768z m768 51.2v-832h-768V768h768z m-160-377.6h25.6v51.2H256v-51.2h25.6z m0-192h25.6v51.2H256v-51.2h25.6zM326.4 640v-25.6h51.2V857.6h-51.2V832z m320 0v-25.6h51.2V857.6h-51.2V832z"  horiz-adv-x="1024" />

    
    <glyph glyph-name="dingdan" unicode="&#58883;" d="M359.424 212.48H348.16v-19.968h19.968v11.264l80.384 8.704L890.88 654.848l-25.088 25.088-29.696 30.208-25.088 25.088L368.64 292.864zM890.88 805.888l-50.176-40.448 80.384-80.384 39.936 50.176zM890.368 582.656c-14.848 0-26.624-11.776-26.624-26.624V112.64c0-53.248-43.52-96.768-96.768-96.768H243.712c-53.248 0-96.768 43.52-96.768 96.768V636.416c0 53.248 43.52 96.768 96.768 96.768h449.536c14.848 0 26.624 11.776 26.624 26.624 0 14.848-11.776 26.624-26.624 26.624H243.712c-82.944 0-150.528-67.584-150.528-150.528V112.64c0-82.944 67.584-150.528 150.528-150.528h523.264c82.944 0 150.528 67.584 150.016 150.528V556.032c0 14.848-11.776 26.624-26.624 26.624z"  horiz-adv-x="1024" />

    
    <glyph glyph-name="wo" unicode="&#58885;" d="M968.838-128H14.368v25.347c0 180.63 140.238 330.295 348.972 372.452l10.97 2.19 117.303-85.874 117.304 85.874 10.95-2.19C828.6 227.642 968.838 77.976 968.838-102.653V-128zM66.177-77.307H917.03C904.66 64.086 789.1 179.971 620.678 217.808l-129.065-94.492-129.064 94.492C194.106 179.97 78.546 64.086 66.177-77.307z m425.436 366.43c-167.307 0-303.428 136.12-303.428 303.428S324.306 896 491.613 896c167.328 0 303.45-136.121 303.45-303.428s-136.122-303.45-303.45-303.45z m0 556.184c-139.365 0-252.735-113.37-252.735-252.735s113.37-252.756 252.735-252.756S744.37 453.186 744.37 592.55 630.98 845.307 491.613 845.307z"  horiz-adv-x="1024" />

    
    <glyph glyph-name="zhanghao" unicode="&#58886;" d="M991.99 256.012H799.985c-17.69 0-32.01 14.32-32.01 32.009 0 17.641 14.32 31.961 32.01 31.961H991.99c17.689 0 32.01-14.32 32.01-31.961 0-17.689-14.321-32.009-32.01-32.009z m0 192.007H736.015c-17.689 0-32.009 14.32-32.009 31.959 0 17.69 14.32 32.01 32.009 32.01H991.99c17.689 0 32.01-14.32 32.01-32.01 0-17.639-14.321-31.959-32.01-31.959z m0 191.956H736.015c-17.689 0-32.009 14.32-32.009 32.009 0 17.691 14.32 32.01 32.009 32.01H991.99c17.689 0 32.01-14.319 32.01-32.01 0-17.689-14.321-32.009-32.01-32.009zM704.006 191.994v-127.987C704.006-42.031 618.037-128 512-128H192.007C85.969-128 0-42.031 0 64.007V191.994c0 84.086 54.357 154.744 129.574 180.758C88.646 428 64.019 498.807 64.019 576.006 64.019 752.701 192.948 896 352.004 896c159.055 0 287.984-143.299 287.984-319.994 0-77.199-24.626-148.006-65.555-203.254 75.216-26.014 129.573-96.672 129.573-180.758zM576.019 576.006c0 141.366-100.29 255.975-224.015 255.975-123.727 0-224.016-114.61-224.016-255.975 0-141.415 100.29-256.024 224.016-256.024 123.725 0 224.015 114.609 224.015 256.024z m63.969-400.017c0 68.032-51.631 124.717-120.803 139.78-47.172-37.459-104.798-59.757-167.181-59.757-62.384 0-120.01 22.298-167.182 59.757-69.171-15.063-120.802-71.748-120.802-139.78v-95.978c0-79.528 70.311-143.992 157.073-143.992h261.821c86.762 0 157.074 64.464 157.074 143.992v95.978z m159.997-47.964H991.99c17.689 0 32.01-14.32 32.01-32.01 0-17.689-14.321-32.009-32.01-32.009H799.985c-17.69 0-32.01 14.32-32.01 32.009 0 17.69 14.32 32.01 32.01 32.01z"  horiz-adv-x="1024" />

    
    <glyph glyph-name="zhinengjianzhanxianti" unicode="&#58887;" d="M977.815955 849.815905c-70.299993 70.299993-204.50998 57.518994-351.501966-19.171999-25.563998 6.389999-44.736996 12.780999-70.299993 12.780999C300.374021 868.989903 76.690043 683.651921 51.127045 428.012946v-44.735996c0-38.345996 6.389999-76.691993 12.781999-115.037989-70.300993-153.382985-83.082992-287.592972-19.172998-351.501965C70.300043-108.827002 95.864041-121.610001 134.210037-128c-19.172998 25.563998-31.954997 51.127995-31.954997 83.081992l-6.389999 6.390999c-57.519994 57.518994-57.519994 146.991986-12.782999 255.638975C127.820038 102.073978 217.292029 6.209987 332.330018-38.527009c236.464977-102.25499 511.27595 6.390999 613.53194 242.856977h-51.127995c-51.127995-108.646989-153.382985-185.337982-268.419974-217.292979C402.630011-70.480006 172.556033 63.729981 115.037039 287.411959c12.781999 25.563998 38.345996 63.909994 57.518994 95.864991h798.869922v44.735996C952.251957 594.177929 849.995967 741.169915 690.221983 805.079909 792.479973 843.424905 875.560964 849.815905 926.68996 798.68891c25.563998-25.563998 38.344996-57.518994 44.735995-95.864991l6.391-6.39c12.781999-19.172998 25.563998-38.345996 31.954996-57.519994 25.563998 89.473991 12.781999 166.165984-31.954996 210.90198zM95.864041 332.149955v51.127995h31.954997c-12.781999-19.172998-19.172998-31.954997-31.954997-51.127995z m63.909993 95.863991h-63.909993C121.428038 638.914925 300.375021 798.68991 511.277 798.68991h51.126995c-95.863991-57.518994-185.337982-127.819988-262.028974-204.509981-51.127995-51.128995-95.863991-108.646989-140.600987-166.165983z m766.914926 0H210.902029c31.953997 38.345996 63.909994 70.299993 95.863991 108.646989 95.863991 95.863991 204.50998 178.945983 325.938968 242.855976 159.773984-44.736996 274.809973-185.337982 293.983972-351.502965z"  horiz-adv-x="1024" />

    
    <glyph glyph-name="xiaoxixuanzhong" unicode="&#58888;" d="M736.33 379.331c27.092 0 49.055 21.963 49.055 49.055s-21.963 49.055-49.055 49.055-49.055-21.963-49.055-49.055 21.963-49.055 49.055-49.055z m-206.032 0c27.092 0 49.055 21.963 49.055 49.055s-21.963 49.055-49.055 49.055-49.055-21.963-49.055-49.055 21.963-49.055 49.055-49.055z m-206.031 0c27.092 0 49.055 21.963 49.055 49.055s-21.963 49.055-49.055 49.055-49.055-21.963-49.055-49.055c-0.001-27.092 21.962-49.055 49.055-49.055z m-108.639-172.59C143.064 264.667 98.613 342.633 98.613 428.387c0 178.81 193.272 323.764 431.686 323.764s431.686-144.954 431.686-323.764-193.272-323.764-431.686-323.764c-48.038 0-94.243 5.885-137.404 16.746l-152.718-73.445c-20.584-9.899-35.939 0.571-34.306 23.251l9.757 135.566z"  horiz-adv-x="1024" />

    
    <glyph glyph-name="hezuohuoban" unicode="&#58889;" d="M611.947-47.787H318.08c-44.373 0-83.307 37.76-83.307 80.854 0 98.56 102.4 244.053 206.72 293.76 12.694 6.08 28.054 0.64 34.134-12.16 6.08-12.8 0.64-28.054-12.16-34.134-93.974-44.693-177.494-175.573-177.494-247.466 0-14.934 15.894-29.654 32.107-29.654h293.76a25.539 25.539 0 0 0 25.6-25.6c0.107-14.08-11.413-25.6-25.493-25.6z m293.76 0h-293.76a25.539 25.539 0 0 0-25.6 25.6 25.539 25.539 0 0 0 25.6 25.6h293.76c16.213 0 32.106 14.72 32.106 29.654 0 71.893-83.626 202.773-177.493 247.466-12.8 6.08-18.24 21.334-12.16 34.134 6.08 12.8 21.333 18.24 34.133 12.16 104.32-49.6 206.72-195.094 206.72-293.76 0-43.094-38.933-80.854-83.306-80.854zM615.787 330.24c-138.774 0-251.627 112.853-251.627 251.627 0 138.773 112.853 251.626 251.627 251.626 138.773 0 251.626-112.853 251.626-251.626 0-138.667-112.96-251.627-251.626-251.627z m0 452.16c-110.507 0-200.427-89.92-200.427-200.427 0-110.506 89.92-200.426 200.427-200.426 110.506 0 200.426 89.92 200.426 200.426 0 110.507-89.92 200.427-200.426 200.427z m-144.32-213.227c-7.04 0-12.8 5.76-12.8 12.8 0 86.614 70.4 157.014 157.013 157.014 7.04 0 12.8-5.76 12.8-12.8s-5.76-12.8-12.8-12.8c-72.533 0-131.413-58.987-131.413-131.414 0-7.146-5.654-12.8-12.8-12.8z m26.56-38.933c0-7.147-5.76-12.907-12.907-12.907a12.883 12.883 0 0 0-12.907 12.907c0 7.147 5.76 12.907 12.907 12.907s12.907-5.867 12.907-12.907zM222.08 48.747H110.72c-40.32 0-75.733 34.346-75.733 73.493 0 89.6 93.12 221.867 187.946 266.987 11.627 5.546 25.494 0.64 31.04-10.987 5.547-11.627 0.534-25.493-10.986-31.04C157.547 306.56 81.6 187.52 81.6 122.24c0-13.547 14.4-26.88 29.12-26.88h111.36c12.8 0 23.253-10.453 23.253-23.253 0-12.907-10.346-23.36-23.253-23.36z m167.253 330.24c-112.213 0-203.52 91.306-203.52 203.52 0 112.213 91.307 203.52 203.52 203.52 0 0 20.694 0.106 20.694-20.8s-20.694-20.694-20.694-20.694c-89.386 0-162.133-72.746-162.133-162.026 0-89.387 72.747-162.134 162.133-162.134 0 0 20.694-0.213 20.694-20.16 0.106-19.946-20.694-21.226-20.694-21.226z"  horiz-adv-x="1024" />

    
    <glyph glyph-name="lianxiwomen" unicode="&#58890;" d="M827.733 823.467H192C98.133 823.467 0 665.6 0 473.6c0-192 85.333-332.8 170.667-345.6h324.266L742.4-55.467V128h110.933C947.2 128 1024 281.6 1024 473.6c0 192-89.6 349.867-196.267 349.867z m-29.866-627.2H674.133v-128L516.267 192 217.6 187.733c-89.6 8.534-140.8 128-140.8 281.6s55.467 277.334 157.867 277.334h563.2c76.8 0 145.066-123.734 145.066-277.334 0-149.333-34.133-273.066-145.066-273.066zM256 448c0-29.867 25.6-55.467 55.467-55.467 29.866 0 55.466 25.6 55.466 55.467 0 29.867-25.6 55.467-55.466 55.467C277.333 507.733 256 482.133 256 448c0-29.867 0 0 0 0z m0 0M465.067 448c0-29.867 25.6-55.467 55.466-55.467C550.4 392.533 576 418.133 576 448c0 29.867-25.6 55.467-55.467 55.467-29.866 4.266-55.466-21.334-55.466-55.467 0-29.867 0 0 0 0z m0 0M674.133 448c0-29.867 25.6-55.467 55.467-55.467 29.867 0 55.467 25.6 55.467 55.467 0 29.867-25.6 55.467-55.467 55.467-29.867 4.266-55.467-21.334-55.467-55.467 0-29.867 0 0 0 0z m0 0"  horiz-adv-x="1024" />

    
    <glyph glyph-name="shouji" unicode="&#58891;" d="M512.387 116.07c-24.834 0-45.039-20.201-45.039-45.041 0-24.834 20.205-45.036 45.039-45.036 24.838 0 45.043 20.202 45.043 45.036 0 24.84-20.205 45.041-45.043 45.041z m0 0M735.214 825H289.563c-37.495 0-67.994-30.501-67.994-67.995v-747.902c0-37.494 30.5-67.994 67.994-67.994h445.651c37.494 0 67.994 30.5 67.994 67.994V757.005c0 37.494-30.5 67.995-67.994 67.995z m-445.651-45.328h445.651c12.5 0 22.667-10.167 22.667-22.667v-560.323H266.897V757.005c0 12.5 10.166 22.667 22.666 22.667z m445.651-793.233H289.563c-12.5 0-22.666 10.169-22.666 22.664V147.475H757.88v-138.371c0.001-12.5-10.166-22.665-22.666-22.665z m0 0"  horiz-adv-x="1024" />

    
    <glyph glyph-name="kehuguanli" unicode="&#58892;" d="M818.102-29.098c-3.336 55.504-25.358 98.994-67.334 132.937-35.1 28.387-79.378 45.865-118.437 61.286-47.717 18.84-89.1 35.181-101.584 63.834-1.944 23.127-1.78 41.075-1.596 61.736 0.02 3.141 0.05 6.334 0.071 9.599 10.162 10.15 18.84 25.347 24.918 37.841 5.526 11.349 14.54 32.296 19.084 56.108 6.652 3.418 12.761 8.545 17.919 15.125 10.171 12.975 16.782 31.65 19.647 55.504 2.67 22.236-3.796 39.356-12.72 50.623 5.72 19.432 13.815 52.035 16.772 88.925 4.145 51.677-3.356 93.326-22.287 123.81-17.54 28.233-44.105 46.008-79.05 52.925-19.28 24.355-56.19 37.627-105.442 37.627-0.123 0-0.246 0-0.379-0.01-75.12-1.371-130.093-24.334-163.401-68.224-39.47-52.004-46.806-130.809-21.858-234.378-9.21-11.266-15.994-28.622-13.262-51.298 2.865-23.853 9.476-42.529 19.637-55.504 5.178-6.6 11.308-11.738 17.98-15.155 6.989-35.315 26.258-75.1 45.025-93.848 0.02-3.213 0.04-6.365 0.072-9.455 0.174-20.732 0.337-38.743-1.617-61.951-12.485-28.642-54.041-44.985-101.952-63.834-39.203-15.421-83.645-32.889-118.878-61.276-42.14-33.943-64.243-77.433-67.579-132.937a20.523 20.523 0 0 1 5.526-15.268 20.476 20.476 0 0 1 14.9-6.426h775.39a20.459 20.459 0 0 1 20.435 21.684zM45.322-9.85c6.231 33.37 22.369 59.73 49.793 81.823 30.352 24.457 69.913 40.012 108.174 55.065 55.903 21.98 108.706 42.753 126.276 89.99a20.526 20.526 0 0 1 1.197 5.3c2.405 26.657 2.231 47.195 2.047 68.93-0.051 6.037-0.102 12.28-0.102 18.798a20.459 20.459 0 0 1-10.694 17.98c-7.798 5.505-32.49 45.465-36.593 83.931-1.044 9.783-8.893 17.437-18.686 18.235-2.6 0.215-13.088 7.542-16.936 39.551-1.975 16.404 6.017 22.206 6.068 22.237a20.481 20.481 0 0 1 9.149 22.615c-12.024 46.253-17.345 87.39-15.82 122.274 1.606 36.911 10.918 66.833 27.69 88.926 25.317 33.36 69.513 50.868 131.362 52.045 38.19-0.03 66.413-9.578 75.51-25.552a20.448 20.448 0 0 1 14.96-10.14c27.251-3.787 46.571-15.412 59.066-35.53 31.333-50.439 13.2-143.61-2.456-190.714-3.009-9.056 0.593-18.961 8.75-23.914 0.08-0.062 8.042-5.833 6.077-22.247-3.847-32.009-14.336-39.336-16.935-39.55-9.793-0.799-17.642-8.453-18.686-18.226-4.134-38.67-28.028-78.498-35.57-83.962a20.478 20.478 0 0 1-10.632-17.96c0-6.59-0.061-12.893-0.113-18.992-0.194-21.684-0.378-42.15 2.027-68.735a20.526 20.526 0 0 1 1.197-5.3c17.56-47.216 70.168-67.99 125.856-89.97 38.098-15.043 77.505-30.597 107.734-55.044 27.322-22.103 43.388-48.463 49.6-81.864H45.322z m971.29 75.95a20.453 20.453 0 0 0-14.888-6.427h-125.53c-11.297 0-20.465 9.159-20.465 20.466 0 11.298 9.168 20.467 20.466 20.467h102.177c-5.577 25.531-18.532 45.946-39.838 63.168-25.06 20.272-58.01 33.278-89.887 45.844-47.583 18.778-92.537 36.522-107.836 77.628a20.203 20.203 0 0 0-1.207 5.311c-2.026 22.564-1.873 39.879-1.71 58.206 0.042 5.137 0.093 10.448 0.093 15.994 0 7.399 3.99 14.204 10.397 17.826 6.866 5.547 25.306 38.067 28.56 68.337 1.034 9.67 8.74 17.263 18.41 18.184 1.862 0.685 8.84 7.531 11.604 30.505 1.33 11.082-3.326 15.278-3.807 15.687-8.023 4.994-11.584 14.838-8.606 23.822 13.006 39.152 28.151 116.453 2.415 157.876-9.987 16.076-25.51 25.378-47.45 28.438a20.433 20.433 0 0 0-14.961 10.151c-6.959 12.228-30.229 19.832-60.754 19.862-12.208-0.235-23.72-1.238-34.23-2.988-11.143-1.852-21.694 5.68-23.546 16.834-1.852 11.144 5.68 21.694 16.833 23.546 12.526 2.088 26.115 3.275 40.38 3.53 0.123 0.01 0.246 0.01 0.369 0.01 41.894 0 73.545-11.266 90.603-31.967 29.758-6.16 52.455-21.551 67.528-45.814 35.345-56.896 15.677-144.634 5.424-180.173 7.48-10.08 12.689-24.846 10.448-43.696-2.497-20.701-8.3-36.961-17.264-48.361-4.287-5.464-9.312-9.803-14.797-12.873-5.802-27.936-20.466-61.235-36.665-78.212-0.01-2.333-0.03-4.625-0.05-6.876-0.154-17.15-0.287-32.07 1.278-51.155 10.356-22.656 45.957-36.706 83.574-51.554 33.114-13.068 70.649-27.875 100.59-52.087 36.103-29.184 55.034-66.556 57.879-114.252a20.468 20.468 0 0 0-5.536-15.257z"  horiz-adv-x="1024" />

    
    <glyph glyph-name="gongsi" unicode="&#58893;" d="M982.197 15.977H897.64c0.302 1.265 0.482 2.59 0.482 3.946V374.528c0 39.86-35.493 72.297-79.134 72.297H647.424V556.303c0 56.757-50.96 102.927-113.574 102.927H246.408c-62.63 0-113.574-46.17-113.574-102.927v-540.326H58.338c-7.876 0-14.26-9.938-14.26-22.196s6.384-22.197 14.26-22.197h923.859c7.875 0 14.245 9.939 14.245 22.197s-6.37 22.196-14.245 22.196zM818.989 411.332c24.064 0 43.64-16.52 43.64-36.804v-354.605c0-1.355 0.181-2.68 0.467-3.946H647.424V411.332h171.565zM168.312 556.303c0 37.18 35.042 67.433 78.096 67.433H533.85c43.054 0 78.095-30.253 78.095-67.433v-540.326H168.312V556.303zM342.8 509.892H224.496c-4.081 0-7.394-7.936-7.394-17.755 0-9.803 3.328-17.739 7.394-17.739h118.302c4.096 0 7.394 7.936 7.394 17.74 0 9.818-3.298 17.754-7.394 17.754zM342.8 338.372H224.496c-4.081 0-7.394-7.951-7.394-17.77 0-9.788 3.328-17.739 7.394-17.739h118.302c4.096 0 7.394 7.936 7.394 17.74 0 9.803-3.298 17.769-7.394 17.769zM714.24 258.5h86.754c2.997 0 5.436 7.95 5.436 17.754 0 9.803-2.44 17.74-5.436 17.74H714.24c-2.982 0-5.421-7.922-5.421-17.74-0.015-9.803 2.424-17.754 5.421-17.754zM800.979 175.691H714.24c-2.997 0-5.421-7.936-5.421-17.754 0-9.788 2.424-17.754 5.421-17.754h86.754c2.997 0 5.436 7.95 5.436 17.754 0 9.818-2.44 17.754-5.451 17.754zM342.8 166.807H224.496c-4.081 0-7.394-7.936-7.394-17.74 0-9.803 3.328-17.754 7.394-17.754h118.302c4.096 0 7.394 7.936 7.394 17.754 0 9.804-3.298 17.74-7.394 17.74zM555.746 506.94H437.444c-4.081 0-7.394-7.95-7.394-17.754s3.313-17.74 7.394-17.74h118.302c4.096 0 7.394 7.937 7.394 17.74s-3.283 17.754-7.394 17.754zM555.746 335.405H437.444c-4.081 0-7.394-7.95-7.394-17.77 0-9.787 3.313-17.739 7.394-17.739h118.302c4.096 0 7.394 7.936 7.394 17.74 0 9.818-3.283 17.77-7.394 17.77zM555.746 163.855H437.444c-4.081 0-7.394-7.936-7.394-17.74 0-9.803 3.313-17.754 7.394-17.754h118.302c4.096 0 7.394 7.936 7.394 17.755 0 9.803-3.283 17.74-7.394 17.74z"  horiz-adv-x="1024" />

    
    <glyph glyph-name="mima" unicode="&#58894;" d="M500.364 290.91h23.272c19.27 0 34.91-15.64 34.91-34.91v-162.91c0-19.269-15.64-34.908-34.933-34.908H500.34c-19.293 0-34.909 15.64-34.909 34.909V256c0.024 19.27 15.64 34.91 34.933 34.91zM884.364 407.273v-419.747c0-25.205-20.853-45.708-46.546-45.708H186.182c-25.67 0-46.546 20.503-46.546 45.708V407.273h744.728m69.818 69.818H69.818v-489.565c0-63.814 52.085-115.526 116.364-115.526h651.636c64.28 0 116.364 51.712 116.364 115.526V477.09zM861.09 477.09h-69.817v69.82c0 156.997-131.096 279.272-279.273 279.272-151.831 0-279.273-127.418-279.273-279.273v-69.818H162.91v69.818C162.91 737.257 321.652 896 512 896c187.95 0 349.09-152.273 349.09-349.09v-69.82z"  horiz-adv-x="1024" />

    
    <glyph glyph-name="weizhi" unicode="&#58895;" d="M512 672.000035c-88.351986 0-159.999975-71.647989-159.999975-159.999975s71.647989-159.999975 159.999975-159.999975 159.999975 71.647989 159.999975 159.999975-71.647989 159.999975-159.999975 159.999975z m0-255.99996c-53.023992 0-95.999985 42.975993-95.999985 95.999985s42.975993 95.999985 95.999985 95.999985 95.999985-42.975993 95.999985-95.999985-42.975993-95.999985-95.999985-95.999985z m0 479.999925C299.936033 896 128.00006 724.064027 128.00006 512.00006c0-160.543975 320.15995-640.3199 383.99994-639.9999 62.84799-0.32 383.99994 481.599925 383.99994 639.9999C895.99994 724.064027 724.064967 896 512 896z m0-927.999855c-53.215992-0.288-319.99995 410.208936-319.99995 543.999915 0 176.735972 143.263978 319.99995 319.99995 319.99995s319.99995-143.263978 319.99995-319.99995c0-131.999979-267.615958-544.287915-319.99995-543.999915z"  horiz-adv-x="1024" />

    
    <glyph glyph-name="weixin" unicode="&#58896;" d="M664.25 527.458c10.015 0 19.892-0.733 29.673-1.796-26.649 122.81-159.358 214.078-310.826 214.078-169.353 0-308.086-114.233-308.086-259.274 0-83.708 46.165-152.46 123.282-205.785l-30.809-91.73 107.689 53.455c38.558-7.537 69.46-15.309 107.924-15.309 9.663 0 19.231 0.471 28.753 1.226-6.025 20.366-9.522 41.723-9.522 63.862 0.001 133.181 115.58 241.271 261.922 241.271z m-165.621 82.668c23.2 0 38.557-15.12 38.557-38.062 0-22.846-15.357-38.156-38.557-38.156-23.107 0-46.261 15.31-46.261 38.156 0 22.942 23.154 38.062 46.261 38.062z m-215.614-76.217c-23.107 0-46.403 15.31-46.403 38.156 0 22.942 23.296 38.062 46.403 38.062 23.082 0 38.463-15.12 38.463-38.062 0-22.847-15.381-38.156-38.463-38.156z m662.432-244.06c0 121.888-123.258 221.237-261.684 221.237-146.578 0-262.015-99.349-262.015-221.237 0-122.065 115.437-221.201 262.015-221.201 30.666 0 61.617 7.609 92.426 15.263l84.514-45.787-23.179 76.171c61.856 45.929 107.925 106.803 107.925 175.554z m-346.644 38.157c-15.332 0-30.809 15.097-30.809 30.502 0 15.191 15.475 30.477 30.809 30.477 23.296 0 38.558-15.286 38.558-30.477 0-15.405-15.263-30.502-38.558-30.502z m169.448 0c-15.213 0-30.595 15.097-30.595 30.502 0 15.191 15.381 30.477 30.595 30.477 23.107 0 38.558-15.286 38.558-30.477 0-15.405-15.451-30.502-38.558-30.502z"  horiz-adv-x="1024" />

    
    <glyph glyph-name="wode" unicode="&#58897;" d="M511.979 777.518c36.927 0 73.303-12.335 102.43-34.733 14.423-11.09 26.398-24.162 35.593-38.852 9.498-15.175 15.788-31.75 18.693-49.265l0.007-0.044 0.007-0.044c5.678-33.779 10.845-85.593 3.214-140.615C665 464.039 649.23 423.761 625.05 394.25l-0.017-0.02-0.016-0.02c-31.61-38.681-48.475-74.524-50.125-106.535-1.437-27.905 9.005-45.235 14.394-52.222 53.817-71.119 124.793-86.885 187.419-100.794 12.154-2.7 23.635-5.25 34.769-8.15 19.962-5.378 42.736-12.583 60.474-25.207l0.033-0.023 0.032-0.024c22.574-15.997 36.72-43.742 42.047-82.465 1.282-9.319 1.88-18.246 2.081-26.26H107.85c0.189 7.474 0.727 15.755 1.845 24.43 2.361 18.312 6.803 34.52 13.202 48.174 7.306 15.59 16.837 27.4 29.138 36.106l0.046 0.033 0.046 0.033c18.35 13.064 41.457 20.3 61.665 25.653 10.657 2.728 21.61 5.154 33.202 7.722 62.754 13.897 133.868 29.642 187.768 100.744 5.392 6.98 15.857 24.31 14.432 52.23-1.635 32.018-18.495 67.867-50.11 106.554l-0.02 0.023-0.02 0.024c-24.186 29.507-39.959 69.78-46.876 119.706-7.622 55.002-2.451 106.827 3.228 140.618l0.007 0.043 0.008 0.044c2.904 17.508 9.195 34.082 18.7 49.258 9.201 14.692 21.18 27.767 35.607 38.863 29.123 22.395 65.439 34.73 102.262 34.73m0 40.932c-92.265 0-181.323-62.883-196.948-157.086-15.839-94.236-10.7-216.13 52.357-293.057 62.636-76.64 34.875-107.995 34.875-107.995-53.809-71.117-130.729-76.293-198.783-93.74-27.024-7.149-52.853-16.088-75.093-31.92-78.858-55.813-59.435-183.054-59.435-183.054H955.053s19.384 127.242-59.372 183.054c-21.852 15.551-47.185 24.282-73.72 31.424-68.408 17.844-145.969 22.486-200.155 94.236 0 0-27.729 31.354 34.906 107.995 63.026 76.92 68.204 198.82 52.363 293.057C693.453 755.567 604.492 818.45 511.98 818.45z"  horiz-adv-x="1024" />

    
    <glyph glyph-name="xiangmu" unicode="&#58898;" d="M483.545 412.368H202.837c-66.34 0-120.428 52.808-120.428 118.03V693.29c0 31.783 12.683 61.929 35.61 84.781 22.886 22.813 53.046 35.434 84.818 35.434h162.89c65.106 0 117.819-53.992 117.819-120.215v-280.92zM202.837 753.13c-32.752 0-60.053-27.204-60.053-59.84V530.4c0-32.2 26.737-58.68 60.053-58.68h221.356V693.29c0 33.2-26.386 59.84-58.466 59.84h-162.89z m619.777-340.76H539.827v280.92c0 31.775 12.495 61.905 35.298 84.734 22.816 22.843 52.82 35.481 84.6 35.481h162.89c65.265 0 118.348-53.992 118.348-120.215V530.4c0-31.78-12.266-61.411-34.547-83.667-22.268-22.243-52.027-34.364-83.802-34.364z m-222.412 59.35h222.412c32.787 0 57.974 25.936 57.974 58.68v162.89c0 33.2-25.733 59.84-57.974 59.84h-162.89c-32.595 0-59.522-27.204-59.522-59.84v-221.57zM365.727-45.05h-162.89c-66.34 0-120.428 53.18-120.428 118.562v162.89c0 31.79 12.7 61.78 35.655 84.562 22.865 22.69 53.008 35.123 84.772 35.123h280.708v-282.574c0-31.765-12.06-61.534-34.188-83.837-22.22-22.397-51.838-34.726-83.63-34.726z m-162.89 340.761c-32.752 0-60.053-26.83-60.053-59.31v-162.89c0-32.357 26.737-58.186 60.053-58.186h162.89c32.626 0 58.467 25.281 58.467 58.187v222.2H202.837z m619.777-340.76h-162.89c-66.18 0-119.897 53.178-119.897 118.56V356.087h282.787c65.266 0 118.349-53.621 118.349-119.685v-162.89c0-31.772-12.25-61.559-34.5-83.883-22.292-22.366-52.066-34.678-83.849-34.678zM600.202 295.71v-222.2c0-32.357 26.365-58.186 59.522-58.186h162.89c32.787 0 57.974 25.281 57.974 58.187v162.89c0 33.039-25.733 59.31-57.974 59.31H600.202z"  horiz-adv-x="1024" />

    
    <glyph glyph-name="dianhua" unicode="&#58900;" d="M908.05 679.078c-40.359 44.449-94.29 63.961-151.87 63.961H268.966c-57.582 0-112.758-19.512-153.112-63.961C76.384 635.602 67.46 598.28 64.577 531.87v-11.856c0-15.051 2.063-31.95 11.752-45.206 14.222-19.462 35.614-30.178 60.223-30.178h131.237c35.895 0 64.013 33.116 64.013 75.385v27.537c1.25 0.77 4.018 1.764 9.098 1.764h338.378c5.075 0 7.848-0.993 9.093-1.764v-27.537c0-42.269 28.118-75.385 64.018-75.385h131.237c24.61 0 45.997 10.716 60.218 30.178 9.69 13.257 15.477 30.16 15.477 45.206V531.87c0 61.06-11.805 103.732-51.272 147.208z m-0.99-178.058c-0.304-1.372-1.27-3.354-1.962-3.98-0.217-0.058-0.746-0.15-1.605-0.15H745.598v39.96c0 16.053-7.585 29.565-20.29 42.386-10.664 10.756-29.889 22.34-60.93 22.34H355.8c-31.04 0-50.27-11.583-60.93-22.34-12.71-12.816-20.295-26.334-20.295-42.387v-36.706c0-1.25-0.093-2.336-0.238-3.252H116.686c-0.863 0-1.391 0.092-1.61 0.15-0.694 0.626-1.658 2.608-1.963 3.985v30.846c0 87.62 63.232 158.908 140.954 158.908h512.046c77.72 0 140.949-71.289 140.949-158.908v-30.852h-0.001z m0 0M510.09 354.072c-64.765 0-117.455-52.69-117.455-117.454 0-64.76 52.69-117.45 117.454-117.45 64.766 0 117.45 52.69 117.45 117.45 0 64.764-52.684 117.454-117.45 117.454z m0-182.557c-35.9 0-65.11 29.205-65.11 65.103 0 35.904 29.21 65.108 65.11 65.108s65.103-29.204 65.103-65.108c0-35.898-29.205-65.103-65.104-65.103z m0 0M778.934 311.261c-62.923 43.407-122.36 84.41-122.36 156.916v26.131H542.762c0.15-1.27 0.238-2.565 0.238-3.874 0-18.172-14.736-27.94-32.908-27.94-18.177 0-32.908 9.768-32.908 27.94 0 1.309 0.082 2.603 0.232 3.874H363.602v-26.13c0-72.506-59.438-113.51-122.356-156.917-57.527-39.689-117.013-80.726-117.013-149.126V32.81H895.95V162.135c-0.002 68.4-59.487 109.437-117.015 149.126z m59.785-228.674H181.46v79.548c0 30.533 39.782 57.978 85.845 89.757 33.136 22.86 70.693 48.769 99.907 81.609 27.159 30.527 43.814 68.01 50.387 103.58h35.68c13.52-16.34 26.055-31.725 56.81-31.725 31.91 0 43.297 15.385 56.81 31.725h35.681c6.573-35.57 23.228-73.053 50.388-103.58 29.214-32.84 66.77-58.75 99.911-81.609 46.063-31.779 85.841-59.223 85.841-89.757v-79.548z m0 0"  horiz-adv-x="1024" />

    


  </font>
</defs>
</svg>
